<svg width="9" height="5" viewBox="0 0 9 5" fill="none" xmlns="http://www.w3.org/2000/svg">
<path d="M8.06348 0.125C8.12075 0.125055 8.17754 0.136317 8.23047 0.158203C8.2836 0.180209 8.33238 0.213243 8.37305 0.253906C8.41351 0.29448 8.44584 0.34256 8.46777 0.395508C8.48976 0.448615 8.50098 0.505999 8.50098 0.563477C8.50092 0.620769 8.48967 0.677525 8.46777 0.730469C8.44577 0.783598 8.41371 0.832386 8.37305 0.873047L4.62305 4.62305C4.58243 4.66374 4.53357 4.69574 4.48047 4.71777C4.42752 4.73971 4.37079 4.75092 4.31348 4.75098C4.25598 4.75098 4.19862 4.73979 4.14551 4.71777C4.09238 4.69573 4.04356 4.66377 4.00293 4.62305V4.62207L0.253906 0.873047C0.213163 0.832407 0.180259 0.783621 0.158203 0.730469C0.136283 0.677532 0.125055 0.620772 0.125 0.563477C0.125 0.505996 0.136197 0.448608 0.158203 0.395508C0.180259 0.342356 0.213163 0.29357 0.253906 0.25293C0.294421 0.21247 0.342617 0.18015 0.395508 0.158203C0.448608 0.136197 0.505996 0.125 0.563477 0.125C0.620771 0.125055 0.677531 0.136283 0.730469 0.158203C0.783621 0.180259 0.832407 0.213163 0.873047 0.253906L4.3125 3.69434L7.75293 0.253906H7.75391C7.79457 0.213243 7.84238 0.180209 7.89551 0.158203C7.9486 0.136231 8.00602 0.125 8.06348 0.125Z" fill="#272727" stroke="#272727" stroke-width="0.25"/>
</svg>
