<svg width="26" height="26" viewBox="0 0 26 26" fill="none" xmlns="http://www.w3.org/2000/svg">
<path fill-rule="evenodd" clip-rule="evenodd" d="M23.375 25.5C23.375 25.5 25.5 25.5 25.5 23.375C25.5 21.25 23.375 14.875 12.75 14.875C2.125 14.875 0 21.25 0 23.375C0 25.5 2.125 25.5 2.125 25.5H23.375ZM2.13563 23.494V23.4897V23.494ZM2.17175 23.375H23.3282C23.3382 23.3738 23.3481 23.3724 23.358 23.3708L23.375 23.3665C23.3729 22.8438 23.0478 21.2712 21.607 19.8305C20.2215 18.445 17.6141 17 12.75 17C7.88375 17 5.2785 18.445 3.893 19.8305C2.45225 21.2712 2.12925 22.8438 2.125 23.3665C2.14055 23.3695 2.15614 23.3723 2.17175 23.375ZM23.3665 23.494V23.4897V23.494ZM12.75 10.625C13.8772 10.625 14.9582 10.1772 15.7552 9.3802C16.5522 8.58317 17 7.50217 17 6.375C17 5.24783 16.5522 4.16683 15.7552 3.3698C14.9582 2.57277 13.8772 2.125 12.75 2.125C11.6228 2.125 10.5418 2.57277 9.7448 3.3698C8.94777 4.16683 8.5 5.24783 8.5 6.375C8.5 7.50217 8.94777 8.58317 9.7448 9.3802C10.5418 10.1772 11.6228 10.625 12.75 10.625ZM19.125 6.375C19.125 8.06575 18.4534 9.68726 17.2578 10.8828C16.0623 12.0784 14.4408 12.75 12.75 12.75C11.0592 12.75 9.43774 12.0784 8.24219 10.8828C7.04665 9.68726 6.375 8.06575 6.375 6.375C6.375 4.68425 7.04665 3.06274 8.24219 1.86719C9.43774 0.67165 11.0592 0 12.75 0C14.4408 0 16.0623 0.67165 17.2578 1.86719C18.4534 3.06274 19.125 4.68425 19.125 6.375Z" fill="#272727"/>
</svg>
